<?xml version="1.0" encoding="utf-8"?>
<!-- Generator: Adobe Illustrator 27.6.1, SVG Export Plug-In . SVG Version: 6.00 Build 0)  -->
<svg version="1.1" id="Calque_1" xmlns="http://www.w3.org/2000/svg" xmlns:xlink="http://www.w3.org/1999/xlink" x="0px" y="0px"
	 viewBox="0 0 209 26.26" style="enable-background:new 0 0 209 26.26;" xml:space="preserve">
<style type="text/css">
	.st0{fill:#FFFFFF;}
	.st1{fill-rule:evenodd;clip-rule:evenodd;}
</style>
<path class="st0" d="M0.94,25.61V0.8h4.96v20.58h5.1v4.23H0.94z"/>
<path class="st0" d="M12.42,25.61V0.8h9.92v4.79h-4.88v4.84h4.68v4.67h-4.68v5.68h5.2v4.84H12.42z"/>
<path class="st0" d="M30.21,25.84c-2.26,0-3.9-0.56-4.91-1.69c-1-1.13-1.49-2.92-1.49-5.38v-2.42h4.91v3.1
	c0,0.57,0.08,1.02,0.25,1.35c0.18,0.32,0.48,0.48,0.92,0.48c0.45,0,0.76-0.13,0.93-0.39c0.18-0.26,0.27-0.7,0.27-1.3
	c0-0.76-0.08-1.4-0.23-1.9c-0.15-0.52-0.41-1.01-0.79-1.47c-0.37-0.47-0.88-1.01-1.54-1.64l-2.23-2.11c-1.66-1.57-2.5-3.36-2.5-5.38
	c0-2.11,0.49-3.73,1.47-4.84c0.99-1.11,2.41-1.66,4.27-1.66c2.27,0,3.89,0.61,4.83,1.82c0.96,1.21,1.44,3.05,1.44,5.53h-5.05V6.21
	c0-0.34-0.1-0.6-0.3-0.79c-0.19-0.19-0.45-0.28-0.78-0.28c-0.39,0-0.69,0.11-0.87,0.34c-0.18,0.22-0.27,0.5-0.27,0.85
	c0,0.35,0.09,0.72,0.28,1.13c0.19,0.4,0.56,0.87,1.11,1.4l2.86,2.75c0.57,0.55,1.1,1.12,1.58,1.73c0.48,0.6,0.86,1.31,1.16,2.11
	c0.29,0.8,0.44,1.78,0.44,2.93c0,2.33-0.43,4.16-1.3,5.48C33.84,25.18,32.34,25.84,30.21,25.84z"/>
<path class="st0" d="M44.42,25.61V0.8h6.55c1.37,0,2.46,0.31,3.26,0.92c0.81,0.61,1.39,1.48,1.73,2.61
	c0.35,1.13,0.52,2.47,0.52,4.03c0,1.5-0.15,2.81-0.44,3.93c-0.29,1.11-0.81,1.97-1.56,2.58c-0.74,0.61-1.8,0.92-3.17,0.92h-2.02
	v9.83H44.42z M49.29,11.33h0.28c0.92,0,1.48-0.26,1.69-0.78c0.21-0.52,0.31-1.28,0.31-2.28c0-0.94-0.1-1.66-0.31-2.17
	c-0.2-0.52-0.67-0.78-1.42-0.78h-0.55V11.33z"/>
<path class="st0" d="M58.06,25.61V0.8h9.92v4.79h-4.88v4.84h4.68v4.67h-4.68v5.68h5.2v4.84H58.06z"/>
<path class="st0" d="M72.09,25.61V5.57h-2.95V0.8H80v4.76h-2.95v20.05H72.09z"/>
<path class="st0" d="M81.15,25.61V0.8h4.79v24.81H81.15z"/>
<path class="st0" d="M90.05,25.61V5.57H87.1V0.8h10.85v4.76h-2.95v20.05H90.05z"/>
<path class="st0" d="M105.23,25.84c-2.27,0-3.9-0.56-4.91-1.69c-1-1.13-1.49-2.92-1.49-5.38v-2.42h4.9v3.1
	c0,0.57,0.08,1.02,0.25,1.35c0.18,0.32,0.48,0.48,0.92,0.48c0.45,0,0.76-0.13,0.93-0.39c0.18-0.26,0.27-0.7,0.27-1.3
	c0-0.76-0.08-1.4-0.23-1.9c-0.15-0.52-0.41-1.01-0.79-1.47c-0.37-0.47-0.88-1.01-1.54-1.64l-2.23-2.11
	c-1.66-1.57-2.49-3.36-2.49-5.38c0-2.11,0.49-3.73,1.47-4.84c0.99-1.11,2.41-1.66,4.27-1.66c2.27,0,3.89,0.61,4.83,1.82
	c0.96,1.21,1.44,3.05,1.44,5.53h-5.05V6.21c0-0.34-0.1-0.6-0.3-0.79c-0.19-0.19-0.45-0.28-0.78-0.28c-0.39,0-0.69,0.11-0.87,0.34
	c-0.18,0.22-0.27,0.5-0.27,0.85c0,0.35,0.09,0.72,0.28,1.13c0.19,0.4,0.56,0.87,1.11,1.4l2.86,2.75c0.57,0.55,1.1,1.12,1.58,1.73
	c0.48,0.6,0.86,1.31,1.16,2.11c0.29,0.8,0.44,1.78,0.44,2.93c0,2.33-0.43,4.16-1.3,5.48C108.86,25.18,107.36,25.84,105.23,25.84z"/>
<path class="st0" d="M119.44,25.61V0.8h6.56c1.37,0,2.46,0.31,3.26,0.92c0.81,0.61,1.39,1.48,1.73,2.61
	c0.35,1.13,0.52,2.47,0.52,4.03c0,1.5-0.15,2.81-0.44,3.93c-0.29,1.11-0.81,1.97-1.56,2.58c-0.74,0.61-1.8,0.92-3.17,0.92h-2.02
	v9.83H119.44z M124.32,11.33h0.28c0.92,0,1.49-0.26,1.69-0.78c0.21-0.52,0.31-1.28,0.31-2.28c0-0.94-0.1-1.66-0.31-2.17
	c-0.2-0.52-0.67-0.78-1.42-0.78h-0.55V11.33z"/>
<path class="st0" d="M133.08,25.61V0.8h4.96v20.58h5.1v4.23H133.08z"/>
<path class="st0" d="M143.88,25.61l2.4-24.81h8.42l2.35,24.81h-4.69l-0.35-4h-2.99l-0.31,4H143.88z M149.36,17.65h2.26l-1.09-12.62
	h-0.22L149.36,17.65z"/>
<path class="st0" d="M160.33,25.61V5.57h-2.95V0.8h10.85v4.76h-2.95v20.05H160.33z"/>
<path class="st0" d="M175.51,25.84c-2.26,0-3.9-0.56-4.91-1.69c-1-1.13-1.49-2.92-1.49-5.38v-2.42h4.91v3.1
	c0,0.57,0.08,1.02,0.25,1.35c0.18,0.32,0.48,0.48,0.92,0.48c0.45,0,0.76-0.13,0.93-0.39c0.18-0.26,0.27-0.7,0.27-1.3
	c0-0.76-0.07-1.4-0.23-1.9c-0.15-0.52-0.41-1.01-0.79-1.47c-0.37-0.47-0.88-1.01-1.54-1.64l-2.23-2.11
	c-1.66-1.57-2.49-3.36-2.49-5.38c0-2.11,0.49-3.73,1.47-4.84c0.99-1.11,2.41-1.66,4.27-1.66c2.27,0,3.89,0.61,4.84,1.82
	c0.96,1.21,1.44,3.05,1.44,5.53h-5.05V6.21c0-0.34-0.1-0.6-0.3-0.79c-0.19-0.19-0.45-0.28-0.78-0.28c-0.39,0-0.69,0.11-0.87,0.34
	c-0.18,0.22-0.27,0.5-0.27,0.85c0,0.35,0.09,0.72,0.28,1.13c0.19,0.4,0.56,0.87,1.11,1.4l2.86,2.75c0.57,0.55,1.1,1.12,1.58,1.73
	c0.48,0.6,0.86,1.31,1.16,2.11c0.29,0.8,0.44,1.78,0.44,2.93c0,2.33-0.43,4.16-1.3,5.48C179.14,25.18,177.65,25.84,175.51,25.84z"/>
<path class="st0" d="M207.94,14.99c0,5.87-4.94,10.63-11.03,10.63c-6.09,0-11.03-4.76-11.03-10.63c0-5.87,4.94-10.63,11.03-10.63
	C203.01,4.36,207.94,9.12,207.94,14.99z"/>
<path class="st1" d="M196.92,24.01c5.26,0,9.42-4.09,9.42-9.02c0-4.93-4.16-9.02-9.42-9.02c-5.26,0-9.42,4.09-9.42,9.02
	C187.5,19.91,191.66,24.01,196.92,24.01z M196.92,25.61c6.09,0,11.03-4.76,11.03-10.63c0-5.87-4.94-10.63-11.03-10.63
	c-6.09,0-11.03,4.76-11.03,10.63C185.89,20.85,190.83,25.61,196.92,25.61z"/>
<path class="st0" d="M204.34,14.99c0,4.1-3.32,7.42-7.42,7.42c-4.1,0-7.42-3.32-7.42-7.42s3.32-7.42,7.42-7.42
	C201.01,7.57,204.34,10.89,204.34,14.99z"/>
<path class="st1" d="M196.92,20.8c3.21,0,5.81-2.6,5.81-5.81s-2.6-5.81-5.81-5.81c-3.21,0-5.81,2.6-5.81,5.81
	S193.71,20.8,196.92,20.8z M196.92,22.4c4.1,0,7.42-3.32,7.42-7.42s-3.32-7.42-7.42-7.42c-4.1,0-7.42,3.32-7.42,7.42
	S192.82,22.4,196.92,22.4z"/>
</svg>
